<?xml version="1.0" encoding="UTF-8" standalone="no"?>
<!DOCTYPE svg PUBLIC "-//W3C//DTD SVG 1.1//EN" "http://www.w3.org/Graphics/SVG/1.1/DTD/svg11.dtd">
<svg width="100%" height="100%" viewBox="0 0 92 92" version="1.1" xmlns="http://www.w3.org/2000/svg" xmlns:xlink="http://www.w3.org/1999/xlink" xml:space="preserve" xmlns:serif="http://www.serif.com/" style="fill-rule:evenodd;clip-rule:evenodd;stroke-linejoin:round;stroke-miterlimit:2;">
    <g transform="matrix(1,0,0,1,-26,-98)">
        <g transform="matrix(1,0,0,1,-496,-16)">
            <g transform="matrix(1,0,0,1,496,16)">
                <rect x="58" y="130" width="28" height="28" style="fill:rgb(34,34,34);"></rect>
            </g>
        </g>
        <g transform="matrix(1,0,0,1,-496,-16)">
            <g transform="matrix(1,0,0,1,496,16)">
                <rect x="86" y="130" width="32" height="28" style="fill:rgb(34,34,34);"></rect>
            </g>
        </g>
        <g transform="matrix(1,0,0,1,-496,-16)">
            <g transform="matrix(1,0,0,1,436,16)">
                <rect x="86" y="130" width="32" height="28" style="fill:rgb(34,34,34);"></rect>
            </g>
        </g>
        <g transform="matrix(1,0,0,1,-496,-16)">
            <g transform="matrix(-1.83697e-16,1,-1,-1.83697e-16,712,88)">
                <rect x="86" y="130" width="32" height="28" style="fill:rgb(34,34,34);"></rect>
            </g>
        </g>
        <g transform="matrix(1,0,0,1,-496,-16)">
            <g transform="matrix(-1.83697e-16,1,-1,-1.83697e-16,712,28)">
                <rect x="86" y="130" width="32" height="28" style="fill:rgb(34,34,34);"></rect>
            </g>
        </g>
    </g>
</svg>
