<?xml version="1.0" encoding="UTF-8" standalone="no"?>
<!DOCTYPE svg PUBLIC "-//W3C//DTD SVG 1.1//EN" "http://www.w3.org/Graphics/SVG/1.1/DTD/svg11.dtd">
<svg width="100%" height="100%" viewBox="0 0 24 24" version="1.1" xmlns="http://www.w3.org/2000/svg" xmlns:xlink="http://www.w3.org/1999/xlink" xml:space="preserve" xmlns:serif="http://www.serif.com/" style="fill-rule:evenodd;clip-rule:evenodd;stroke-linecap:square;stroke-miterlimit:1.5;">
    <g transform="matrix(1,0,0,1,-16,-16)">
        <g transform="matrix(1,0,0,1,-496,-16)">
            <g id="power" transform="matrix(1,0,0,1,496,16)">
                <g transform="matrix(1.5,0,0,1.5,-8,-8)">
                    <circle cx="24" cy="24" r="8" style="fill:rgb(102,102,102);"></circle>
                </g>
                <g transform="matrix(0.618718,0.618718,0.618718,-0.618718,-1.70005,28.0016)">
                    <path d="M16,24C16,19.585 19.585,16 24,16C28.415,16 32,19.585 32,24C32,28.415 28.415,32 24,32" style="fill:none;stroke:rgb(168,0,0);stroke-width:2.29px;"></path>
                </g>
                <g transform="matrix(1,0,5.42101e-20,1,0.00156861,1)">
                    <path d="M27.998,19L28,28" style="fill:none;stroke:rgb(168,0,0);stroke-width:2px;stroke-linecap:butt;"></path>
                </g>
            </g>
        </g>
    </g>
</svg>
