<svg viewBox="0 0 24 24" xmlns="http://www.w3.org/2000/svg" xml:space="preserve" style="fill-rule:evenodd;clip-rule:evenodd;stroke-linejoin:round;stroke-miterlimit:2"><g transform="translate(-600 -32)"><g id="settings"><circle cx="24" cy="24" r="8" style="fill:#666" transform="matrix(1.5 0 0 1.5 576 8)"/><path d="m549.985 20.249 2.092.868a2 2 0 0 0 2.806 2.806l.868 2.092A2.002 2.002 0 0 0 554 28c0 1.02.765 1.862 1.751 1.985l-.868 2.092a2 2 0 0 0-2.806 2.806l-2.092.868A2.002 2.002 0 0 0 548 34c-1.02 0-1.862.765-1.985 1.751l-2.092-.868a2 2 0 0 0-2.806-2.806l-.868-2.092A2.002 2.002 0 0 0 542 28c0-1.02-.765-1.862-1.751-1.985l.868-2.092a2 2 0 0 0 2.806-2.806l2.092-.868A2.002 2.002 0 0 0 548 22c1.02 0 1.862-.765 1.985-1.751ZM548 24c2.208 0 4 1.792 4 4s-1.792 4-4 4-4-1.792-4-4 1.792-4 4-4Z" style="fill:#222" transform="rotate(22.5 542.474 186.213) scale(1.00782)"/></g></g></svg>