<?xml version="1.0" encoding="UTF-8" standalone="no"?>
<!DOCTYPE svg PUBLIC "-//W3C//DTD SVG 1.1//EN" "http://www.w3.org/Graphics/SVG/1.1/DTD/svg11.dtd">
<svg width="100%" height="100%" viewBox="0 0 24 24" version="1.1" xmlns="http://www.w3.org/2000/svg" xmlns:xlink="http://www.w3.org/1999/xlink" xml:space="preserve" xmlns:serif="http://www.serif.com/" style="fill-rule:evenodd;clip-rule:evenodd;stroke-linejoin:round;stroke-miterlimit:2;">
    <g transform="matrix(1,0,0,1,-536,-16)">
        <g transform="matrix(1,0,0,1,-64,-16)">
            <g id="settings" transform="matrix(1,0,0,1,584,16)">
                <g transform="matrix(1.5,0,0,1.5,-8,-8)">
                    <circle cx="24" cy="24" r="8" style="fill:rgb(102,102,102);"></circle>
                </g>
                <g transform="matrix(0.931104,0.385676,-0.385676,0.931104,-471.446,-209.421)">
                    <path d="M549.985,20.249L552.077,21.117C551.467,21.901 551.522,23.037 552.243,23.757C552.963,24.478 554.099,24.533 554.883,23.923L555.751,26.015C554.765,26.138 554,26.98 554,28C554,29.02 554.765,29.862 555.751,29.985L554.883,32.077C554.099,31.467 552.963,31.522 552.243,32.243C551.522,32.963 551.467,34.099 552.077,34.883L549.985,35.751C549.862,34.765 549.02,34 548,34C546.98,34 546.138,34.765 546.015,35.751L543.923,34.883C544.533,34.099 544.478,32.963 543.757,32.243C543.037,31.522 541.901,31.467 541.117,32.077L540.249,29.985C541.235,29.862 542,29.02 542,28C542,26.98 541.235,26.138 540.249,26.015L541.117,23.923C541.901,24.533 543.037,24.478 543.757,23.757C544.478,23.037 544.533,21.901 543.923,21.117L546.015,20.249C546.138,21.235 546.98,22 548,22C549.02,22 549.862,21.235 549.985,20.249ZM548,24C550.208,24 552,25.792 552,28C552,30.208 550.208,32 548,32C545.792,32 544,30.208 544,28C544,25.792 545.792,24 548,24Z" style="fill:rgb(34,34,34);"></path>
                </g>
            </g>
        </g>
    </g>
</svg>
