<?xml version="1.0" encoding="UTF-8" standalone="no"?>
<!DOCTYPE svg PUBLIC "-//W3C//DTD SVG 1.1//EN" "http://www.w3.org/Graphics/SVG/1.1/DTD/svg11.dtd">
<svg width="100%" height="100%" viewBox="0 0 38 38" version="1.1" xmlns="http://www.w3.org/2000/svg" xmlns:xlink="http://www.w3.org/1999/xlink" xml:space="preserve" xmlns:serif="http://www.serif.com/" style="fill-rule:evenodd;clip-rule:evenodd;stroke-linejoin:round;stroke-miterlimit:2;">
    <g transform="matrix(1,0,0,1,-458,-144)">
        <g transform="matrix(1,0,0,1,-64,-16)">
            <g transform="matrix(1,0,0,1,64,16)">
                <circle cx="477" cy="163" r="19" style="fill:rgb(34,34,34);"/>
                <path d="M477,144C487.486,144 496,152.514 496,163C496,173.486 487.486,182 477,182C466.514,182 458,173.486 458,163C458,152.514 466.514,144 477,144ZM477,147C485.831,147 493,154.169 493,163C493,171.831 485.831,179 477,179C468.169,179 461,171.831 461,163C461,154.169 468.169,147 477,147Z"/>
            </g>
        </g>
    </g>
</svg>
